<?xml version="1.0" encoding="UTF-8"?>
<!DOCTYPE svg PUBLIC "-//W3C//DTD SVG 1.1//EN" "http://www.w3.org/Graphics/SVG/1.1/DTD/svg11.dtd">
<!-- Creator: CorelDRAW -->
<svg xmlns="http://www.w3.org/2000/svg" xml:space="preserve" width="49.9305mm" height="50.0585mm" version="1.1" style="shape-rendering:geometricPrecision; text-rendering:geometricPrecision; image-rendering:optimizeQuality; fill-rule:evenodd; clip-rule:evenodd"
viewBox="0 0 1530.18 1534.1"
 xmlns:xlink="http://www.w3.org/1999/xlink"
 xmlns:xodm="http://www.corel.com/coreldraw/odm/2003">
 <defs>
  <style type="text/css">
   <![CDATA[
    .fil1 {fill:red}
    .fil0 {fill:#FFCC00;fill-rule:nonzero}
   ]]>
  </style>
 </defs>
 <g id="Layer_x0020_1">
  <metadata id="CorelCorpID_0Corel-Layer"/>
  <g id="_1667639670096">
   <path class="fil0" d="M1006.98 575.69l119.93 -95.64 179.89 -143.46 59.96 -47.82c19.73,24.74 37.68,50.32 53.88,76.6 44.84,72.76 76.18,150.81 94.4,230.88 6.96,30.58 12,61.45 15.15,92.43l-76.3 7.83 -228.92 23.48c-1.89,-18.59 -4.91,-37.11 -9.09,-55.46l224.37 -51.21c-16.4,-72.07 -44.6,-142.32 -84.96,-207.8l-196.05 120.48 -130.73 80.34c13.06,21.24 23.54,44.08 31.14,67.99 2.54,8 4.76,16.12 6.65,24.35 2.77,12.12 4.82,24.46 6.1,36.97 2.51,24.46 2.08,49.53 -1.56,74.77l-75.93 -10.86c2.73,-18.93 3.05,-37.73 1.17,-56.08 -0.96,-9.38 -2.49,-18.64 -4.58,-27.73 -1.41,-6.17 -3.07,-12.26 -4.98,-18.26 -5.7,-17.94 -13.56,-35.06 -23.36,-50.99 -4.9,-7.98 -10.29,-15.66 -16.14,-23l59.95 -47.81zm-538.93 259.54l-149.55 34.13 -224.32 51.2 -74.77 17.07c-7.04,-30.85 -12.11,-61.69 -15.3,-92.39 -8.83,-85.01 -3.2,-168.93 15.13,-248.98 7,-30.56 15.85,-60.56 26.46,-89.84l72.14 26.06 216.44 78.16c-6.36,17.57 -11.67,35.57 -15.87,53.91l-224.37 -51.21c-16.5,72.05 -21.56,147.58 -13.62,224.08l228.91 -23.48 152.64 -15.66c-2.55,-24.8 -2.09,-49.92 1.44,-74.76 1.18,-8.31 2.71,-16.59 4.58,-24.82 2.76,-12.12 6.27,-24.13 10.54,-35.95 8.35,-23.12 19.61,-45.53 33.85,-66.69l63.69 42.73c-10.67,15.87 -19.12,32.67 -25.38,50.01 -3.21,8.87 -5.84,17.88 -7.91,26.97 -1.4,6.17 -2.55,12.38 -3.43,18.62 -2.65,18.63 -2.99,37.47 -1.08,56.08 0.96,9.32 2.48,18.58 4.56,27.72l-74.76 17.06zm59.24 -259.54l-119.93 -95.64 -179.89 -143.46 -59.97 -47.82c19.73,-24.74 40.68,-47.94 62.69,-69.57 60.96,-59.9 130.08,-107.83 204.09,-143.41 28.26,-13.58 57.24,-25.37 86.74,-35.33l24.61 72.65 73.83 217.95c-17.7,5.98 -35.09,13.05 -52.04,21.2l-99.85 -207.35c-66.61,32.02 -128.82,75.15 -183.69,129.07l161.09 164.32 107.41 109.58c17.81,-17.46 37.73,-32.76 59.36,-45.49 7.24,-4.26 14.66,-8.23 22.26,-11.89 11.2,-5.4 22.78,-10.15 34.68,-14.18 23.28,-7.89 47.82,-13.05 73.24,-15.12l6.3 76.44c-19.06,1.55 -37.47,5.42 -54.93,11.34 -8.93,3.02 -17.61,6.58 -26.01,10.63 -5.7,2.75 -11.27,5.73 -16.7,8.92 -16.22,9.55 -31.16,21.02 -44.52,34.12 -6.69,6.56 -12.98,13.52 -18.83,20.85l-59.95 -47.81zm239.85 -115.51l-0 -153.4 0 -230.09 0 -76.7c31.64,0 62.84,1.92 93.48,5.64 84.84,10.31 165.41,34.47 239.37,70.15 28.24,13.63 55.52,28.93 81.71,45.79l-41.46 64.54 -124.36 193.62c-15.71,-10.11 -32.08,-19.3 -49.03,-27.47l99.86 -207.35c-66.57,-32.11 -139.08,-53.86 -215.44,-63.14l-28.04 228.4 -18.7 152.29c24.75,3.04 49.13,9.07 72.57,18.04 7.84,3 15.57,6.33 23.18,9.99 11.21,5.39 22.14,11.48 32.71,18.27 20.68,13.29 40.02,29.25 57.49,47.84l-55.83 52.59c-13.1,-13.94 -27.6,-25.91 -43.12,-35.88 -7.93,-5.1 -16.13,-9.67 -24.53,-13.71 -5.7,-2.74 -11.5,-5.24 -17.39,-7.49 -17.57,-6.73 -35.87,-11.26 -54.43,-13.53 -9.29,-1.14 -18.66,-1.72 -28.04,-1.73l0 -76.68zm299.08 375.04l149.55 34.13 224.32 51.2 74.77 17.07c-7.04,30.85 -15.85,60.84 -26.3,89.88 -28.93,80.42 -70.41,153.59 -121.66,217.76 -19.57,24.5 -40.56,47.69 -62.82,69.47l-53.7 -54.78 -161.09 -164.33c13.36,-13.07 25.95,-26.98 37.69,-41.68l179.93 143.49c46.12,-57.75 83.46,-123.61 109.49,-195.98l-216.43 -78.16 -144.32 -52.12c-8.47,23.45 -19.78,45.89 -33.74,66.73 -4.67,6.98 -9.64,13.78 -14.9,20.38 -7.74,9.72 -16.12,19.02 -25.1,27.82 -17.56,17.21 -37.43,32.51 -59.43,45.4l-38.85 -66.13c16.5,-9.67 31.4,-21.15 44.57,-34.05 6.73,-6.6 13.01,-13.57 18.82,-20.87 3.94,-4.95 7.67,-10.05 11.17,-15.28 10.47,-15.63 18.95,-32.46 25.31,-50.05 3.18,-8.81 5.83,-17.81 7.92,-26.95l74.76 17.06zm-165.98 208.13l66.56 138.21 99.83 207.3 33.28 69.1c-28.51,13.73 -57.45,25.54 -86.67,35.48 -80.91,27.52 -163.98,40.71 -246.11,40.66 -31.36,-0.02 -62.57,-1.98 -93.48,-5.8l9.35 -76.13 28.04 -228.4c18.54,2.29 37.27,3.47 56.09,3.48l0 230.14c73.91,0.05 148.68,-11.82 221.49,-36.59l-73.83 -217.94 -49.23 -145.32c-23.62,8 -48.21,13.14 -73.21,15.23 -8.37,0.7 -16.78,1.05 -25.22,1.06 -12.43,0.01 -24.92,-0.74 -37.4,-2.28 -24.4,-3 -48.75,-8.99 -72.55,-18.16l27.49 -71.6c17.85,6.88 36.11,11.37 54.41,13.62 9.36,1.15 18.73,1.71 28.05,1.7 6.33,-0 12.64,-0.27 18.91,-0.79 18.75,-1.56 37.2,-5.42 54.91,-11.42 8.87,-3.01 17.56,-6.55 26.01,-10.61l33.27 69.09zm-266.21 0l-66.56 138.21 -99.83 207.3 -33.28 69.1c-28.51,-13.73 -55.79,-28.99 -81.77,-45.64 -71.97,-46.1 -134.07,-102.82 -185.23,-167.07 -19.53,-24.53 -37.47,-50.15 -53.75,-76.7l65.35 -40.16 196.06 -120.48c9.77,15.93 20.53,31.31 32.25,46.02l-179.93 143.49c46.04,57.82 101.94,108.87 166.71,150.36l124.36 -193.61 82.93 -129.1c-20.98,-13.47 -40.33,-29.49 -57.55,-47.74 -5.76,-6.1 -11.29,-12.46 -16.55,-19.05 -7.76,-9.72 -14.96,-19.95 -21.54,-30.66 -12.87,-20.95 -23.37,-43.72 -31.04,-68.04l73.12 -23.15c5.75,18.24 13.63,35.32 23.28,51.03 4.94,8.04 10.34,15.71 16.16,22.99 3.95,4.95 8.09,9.71 12.41,14.29 12.91,13.69 27.43,25.7 43.17,35.81 7.88,5.06 16.07,9.64 24.52,13.72l-33.27 69.09z"/>
   <path class="fil1" d="M931.14 767.05l0 95.87 -83.02 47.93 -83.03 47.93 -83.03 -47.93 -83.03 -47.93 0 -95.87 0 -95.87 83.03 -47.94 83.03 -47.93 83.03 47.93 83.02 47.94 0 95.87zm-62.27 0l0 -44.94 -90.81 52.43 0 104.86 38.92 -22.47 51.89 -29.96 0 -59.92zm-103.78 -14.98l90.81 -52.43 -38.92 -22.47 -51.89 -29.96 -51.89 29.96 -38.92 22.47 90.81 52.43zm-12.98 127.33l0 -104.86 -90.81 -52.43 0 44.94 0 59.92 51.89 29.96 38.92 22.47z"/>
  </g>
 </g>
</svg>
