<?xml version="1.0" encoding="UTF-8"?>
<!DOCTYPE svg PUBLIC "-//W3C//DTD SVG 1.1//EN" "http://www.w3.org/Graphics/SVG/1.1/DTD/svg11.dtd">
<!-- Creator: CorelDRAW -->
<svg xmlns="http://www.w3.org/2000/svg" xml:space="preserve" width="231.252mm" height="106.743mm" version="1.1" style="shape-rendering:geometricPrecision; text-rendering:geometricPrecision; image-rendering:optimizeQuality; fill-rule:evenodd; clip-rule:evenodd"
viewBox="0 0 23133.16 10677.92"
 xmlns:xlink="http://www.w3.org/1999/xlink"
 xmlns:xodm="http://www.corel.com/coreldraw/odm/2003">
 <defs>
  <style type="text/css">
   <![CDATA[
    .fil1 {fill:gray}
    .fil3 {fill:red}
    .fil4 {fill:#666666;fill-rule:nonzero}
    .fil2 {fill:#FFCC00;fill-rule:nonzero}
    .fil0 {fill:white;fill-rule:nonzero}
   ]]>
  </style>
 </defs>
 <g id="Layer_x0020_1">
  <metadata id="CorelCorpID_0Corel-Layer"/>
  <g id="_1667642607664">
   <path class="fil0" d="M1950.72 8368.1c0,-108.08 -61.39,-189.52 -177.37,-236.52 -73.34,-29.76 -160.32,-42.29 -325.76,-51.69l11.93 -43.87 -122.79 47c-139.86,21.93 -228.55,50.13 -318.94,103.38 -144.98,86.16 -214.9,191.11 -214.9,324.25 0,29.76 1.71,48.56 11.93,89.28l139.87 -57.96c-10.23,-40.72 -11.94,-59.52 -11.94,-87.71 0,-186.4 126.21,-296.05 364.99,-317.98l-127.91 466.78c-66.51,261.59 -110.86,310.15 -295.05,322.68l-81.88 72.05 216.61 0c281.42,0 349.63,-4.7 440.02,-34.46 136.45,-42.29 276.3,-123.74 342.82,-198.93 86.99,-98.68 148.38,-263.16 148.38,-396.31zm-148.38 31.33c0,134.72 -56.29,302.31 -133.04,391.6 -83.57,98.68 -184.19,136.28 -359.87,136.28l-25.57 0 -218.31 -6.27c197.85,-169.17 197.85,-169.17 274.59,-452.69l93.8 -339.91c124.5,4.7 182.49,14.09 235.36,39.15 83.58,40.73 133.04,126.88 133.04,231.83zm699.27 432.33l0 -45.43c-63.1,46.99 -184.19,142.54 -271.17,142.54 -95.51,0 -104.05,-93.98 -102.34,-155.07 39.22,-17.23 206.36,-133.15 240.47,-156.63 63.11,-47 109.17,-97.12 109.17,-170.74 0,-51.7 -34.12,-90.85 -97.22,-90.85 -61.4,0 -114.27,28.19 -175.67,72.05 -150.09,106.52 -202.96,281.95 -202.96,429.19 0,95.55 42.63,162.91 146.68,162.91 131.32,0 283.12,-123.74 353.04,-187.96zm-150.09 -341.48c0,112.78 -139.85,177 -221.72,234.96 6.81,-78.32 71.63,-300.74 168.85,-300.74 37.52,0 52.87,31.32 52.87,65.78zm721.45 -83.02c-34.11,-37.59 -66.51,-53.26 -114.27,-53.26 -124.5,0 -284.83,136.28 -284.83,239.66 0,48.56 27.29,86.15 92.09,128.44 85.29,54.82 97.22,68.92 97.22,108.08 0,56.39 -78.46,122.18 -144.97,122.18 -37.52,0 -66.52,-18.8 -83.58,-53.26 -11.93,-23.5 -15.35,-46.99 -17.06,-100.24 -18.76,12.52 -32.4,20.36 -39.22,25.06 -13.64,7.83 -28.99,15.67 -44.34,25.06 0,0 -13.65,7.83 -30.71,18.8 -1.7,14.1 -3.41,26.63 -3.41,36.03 0,67.35 51.18,114.35 126.21,114.35 52.88,0 126.21,-20.37 180.79,-48.57 100.62,-53.25 162.02,-133.14 162.02,-211.46 0,-57.95 -11.93,-70.48 -107.45,-125.31 -57.99,-34.45 -81.87,-64.22 -81.87,-104.95 0,-53.26 49.47,-100.24 107.46,-100.24 39.23,0 68.21,17.23 105.74,61.09 57.99,-51.7 57.99,-51.7 80.17,-81.46zm428.09 449.55l6.83 -46.99c-83.58,46.99 -167.15,86.15 -182.49,86.15 -18.76,0 -32.41,-18.8 -32.41,-43.86 0,-56.4 20.47,-115.92 35.81,-175.44l52.88 -198.94c8.52,-32.89 22.18,-83.02 22.18,-101.81 0,-12.52 -5.12,-20.36 -20.47,-20.36 -39.22,0 -216.6,106.52 -267.77,137.84l-1.71 45.43c39.23,-20.36 100.63,-57.95 124.5,-57.95 18.77,0 20.47,17.23 20.47,31.32 0,34.46 -37.52,150.38 -56.28,222.44 -18.77,72.05 -49.46,145.67 -49.46,216.15 0,40.73 17.06,65.79 44.34,65.79 29,0 59.7,-14.09 158.62,-73.63 27.29,-17.23 40.93,-26.62 144.96,-86.15zm11.95 -726.81c-30.71,-45.43 -32.42,-50.12 -49.47,-86.15 -1.71,-6.26 -5.11,-14.09 -8.52,-20.36 -10.24,7.82 -17.06,12.52 -23.89,17.23 -46.04,36.02 -49.46,37.59 -93.8,65.79 13.64,37.59 25.59,56.39 64.81,109.65l56.29 -47c10.22,-6.26 15.35,-10.96 54.58,-39.16zm692.45 225.57l-197.84 3.13c-104.05,1.56 -133.04,6.26 -184.2,34.46 -81.87,46.99 -139.85,90.85 -175.67,133.15 -51.17,61.08 -112.56,250.62 -112.56,346.17 0,39.16 10.22,67.35 37.51,101.81l-196.14 155.07c-85.27,68.92 -124.5,120.61 -124.5,164.48 0,57.95 75.05,90.85 204.67,90.85 156.91,0 279.71,-40.72 393.97,-131.58 73.34,-57.96 90.39,-90.85 126.2,-245.92l85.29 -352.44c6.81,-34.46 15.35,-64.22 22.17,-89.29l25.58 -87.72c3.41,-14.09 6.82,-25.06 8.53,-34.45 30.7,-7.83 32.4,-7.83 86.98,-87.72zm-366.69 728.37c-22.18,93.98 -37.52,130.01 -68.23,159.77 -37.51,39.16 -107.44,59.52 -208.07,59.52 -110.86,0 -170.56,-28.19 -170.56,-78.32 0,-64.22 46.06,-103.39 520.2,-437.03l-73.34 296.05zm254.12 -642.22c-8.52,6.26 -18.76,14.09 -27.28,18.8 -54.59,36.02 -66.52,50.13 -81.87,87.72l-56.29 183.26c-34.1,20.37 -75.04,48.57 -218.31,147.24 -30.69,-28.19 -42.62,-53.25 -42.62,-90.85 0,-53.25 40.93,-189.52 76.75,-264.72 34.11,-64.22 69.92,-79.88 194.43,-79.88 11.94,0 32.41,0 54.58,-1.57l46.05 0c18.77,0 35.82,0 54.58,0zm861.3 355.57c-170.56,89.28 -177.38,92.42 -194.44,92.42 -17.06,0 -27.29,-17.24 -27.29,-42.29 0,-32.9 11.94,-84.59 44.35,-192.67 80.16,-263.16 80.16,-263.16 80.16,-274.12 0,-17.23 -11.94,-26.63 -34.1,-26.63 -25.59,0 -63.11,14.09 -124.51,50.13l-233.66 133.15c15.36,-51.7 40.93,-150.38 40.93,-162.91 0,-10.96 -10.23,-20.37 -22.18,-20.37 -18.76,0 -141.56,57.96 -267.76,126.88l-10.24 40.72c109.16,-45.43 115.98,-47 131.33,-47 11.94,0 20.47,9.4 20.47,21.93 0,32.9 -32.41,162.91 -75.05,305.45l-39.23 126.87 -23.88 84.59 127.92 -45.43 100.62 -368.11c213.19,-123.74 218.31,-125.31 242.19,-125.31 11.93,0 18.75,7.83 18.75,20.37 0,23.5 -13.63,83.02 -63.09,261.59 -37.52,139.41 -44.36,166.04 -44.36,195.8 0,21.93 6.83,42.29 25.59,70.48 78.46,-32.89 196.15,-100.24 315.53,-181.7l11.94 -43.86zm798.18 59.52l6.83 -46.99c-83.58,46.99 -167.15,86.15 -182.49,86.15 -18.76,0 -32.41,-18.8 -32.41,-43.86 0,-56.4 20.47,-115.92 35.81,-175.44l52.88 -198.94c8.52,-32.89 22.17,-83.02 22.17,-101.81 0,-12.52 -5.11,-20.36 -20.46,-20.36 -39.22,0 -216.6,106.52 -267.77,137.84l-1.71 45.43c39.23,-20.36 100.63,-57.95 124.5,-57.95 18.77,0 20.47,17.23 20.47,31.32 0,34.46 -37.52,150.38 -56.28,222.44 -18.77,72.05 -49.46,145.67 -49.46,216.15 0,40.73 17.06,65.79 44.34,65.79 29,0 59.7,-14.09 158.62,-73.63 27.29,-17.23 40.93,-26.62 144.96,-86.15zm11.95 -726.81c-30.71,-45.43 -32.42,-50.12 -49.47,-86.15 -1.71,-6.26 -5.11,-14.09 -8.52,-20.36 -10.24,7.82 -17.06,12.52 -23.89,17.23 -46.04,36.02 -49.46,37.59 -93.8,65.79 13.64,37.59 25.59,56.39 64.81,109.65l56.29 -47c10.22,-6.26 15.35,-10.96 54.58,-39.16zm515.08 277.25c-34.12,-37.59 -66.52,-53.26 -114.27,-53.26 -124.51,0 -284.83,136.28 -284.83,239.66 0,48.56 27.28,86.15 92.09,128.44 85.28,54.82 97.22,68.92 97.22,108.08 0,56.39 -78.46,122.18 -144.98,122.18 -37.52,0 -66.51,-18.8 -83.57,-53.26 -11.94,-23.5 -15.35,-46.99 -17.06,-100.24 -18.76,12.52 -32.41,20.36 -39.22,25.06 -13.65,7.83 -29,15.67 -44.35,25.06 0,0 -13.64,7.83 -30.7,18.8 -1.7,14.1 -3.41,26.63 -3.41,36.03 0,67.35 51.17,114.35 126.2,114.35 52.88,0 126.22,-20.37 180.8,-48.57 100.61,-53.25 162.02,-133.14 162.02,-211.46 0,-57.95 -11.93,-70.48 -107.45,-125.31 -57.99,-34.45 -81.87,-64.22 -81.87,-104.95 0,-53.26 49.46,-100.24 107.45,-100.24 39.23,0 68.22,17.23 105.75,61.09 57.99,-51.7 57.99,-51.7 80.17,-81.46zm868.13 554.51l-158.62 -10.97 221.72 -803.56 98.92 -10.96 61.41 -36.03 -393.98 0 -57.99 36.03 156.9 10.96 -221.72 801.99 -100.63 12.53 -59.68 36.02 395.69 0 57.99 -36.02zm944.87 -164.48c-170.56,89.28 -177.38,92.42 -194.44,92.42 -17.06,0 -27.29,-17.24 -27.29,-42.29 0,-32.9 11.94,-84.59 44.35,-192.67 80.16,-263.16 80.16,-263.16 80.16,-274.12 0,-17.23 -11.94,-26.63 -34.1,-26.63 -25.59,0 -63.11,14.09 -124.51,50.13l-233.65 133.15c15.35,-51.7 40.92,-150.38 40.92,-162.91 0,-10.96 -10.23,-20.37 -22.17,-20.37 -18.76,0 -141.57,57.96 -267.77,126.88l-10.24 40.72c109.17,-45.43 115.98,-47 131.33,-47 11.94,0 20.47,9.4 20.47,21.93 0,32.9 -32.41,162.91 -75.05,305.45l-39.23 126.87 -23.87 84.59 127.91 -45.43 100.63 -368.11c213.18,-123.74 218.3,-125.31 242.18,-125.31 11.93,0 18.76,7.83 18.76,20.37 0,23.5 -13.64,83.02 -63.1,261.59 -37.52,139.41 -44.36,166.04 -44.36,195.8 0,21.93 6.83,42.29 25.59,70.48 78.46,-32.89 196.15,-100.24 315.53,-181.7l11.94 -43.86zm513.38 42.29l3.4 -39.16c-129.62,70.49 -184.2,97.11 -208.08,97.11 -22.16,0 -49.46,-40.72 -49.46,-73.62 0,-21.93 28.99,-142.54 73.34,-307.02 23.89,-1.56 40.93,-1.56 49.47,-1.56l68.22 -1.57c6.82,0 23.88,-1.57 51.16,-4.7l64.82 -45.43 -218.31 0 68.22 -253.76c-32.41,15.67 -46.06,20.37 -71.62,31.33 -11.95,6.26 -25.59,10.96 -39.23,17.23 -6.82,3.14 -15.36,6.27 -23.88,9.4l-47.77 195.8c-15.35,1.57 -25.57,1.57 -30.69,1.57l-40.93 0c0,0 -11.93,0 -25.58,1.56 -18.76,10.96 -20.47,10.96 -49.47,32.9 -5.12,3.13 -13.64,9.39 -25.59,17.23l40.93 0 78.46 0 37.52 0c-90.39,347.74 -90.39,347.74 -90.39,396.3 0,50.13 35.81,104.96 68.22,104.96 37.51,0 153.49,-65.79 317.24,-178.57zm581.59 -7.83l0 -45.43c-63.11,46.99 -184.19,142.54 -271.18,142.54 -95.51,0 -104.04,-93.98 -102.33,-155.07 39.22,-17.23 206.36,-133.15 240.47,-156.63 63.11,-47 109.16,-97.12 109.16,-170.74 0,-51.7 -34.11,-90.85 -97.22,-90.85 -61.39,0 -114.27,28.19 -175.66,72.05 -150.1,106.52 -202.97,281.95 -202.97,429.19 0,95.55 42.64,162.91 146.69,162.91 131.32,0 283.12,-123.74 353.04,-187.96zm-150.09 -341.48c0,112.78 -139.86,177 -221.72,234.96 6.81,-78.32 71.63,-300.74 168.85,-300.74 37.52,0 52.87,31.32 52.87,65.78zm602.06 339.91l0 -34.46c-23.88,12.53 -39.23,21.94 -46.06,25.07 -122.79,70.48 -136.44,76.75 -160.31,76.75 -30.71,0 -30.71,-37.59 -30.71,-68.91 0,-28.2 76.76,-332.08 139.86,-552.94 66.52,-230.26 81.88,-258.46 156.91,-258.46 22.18,0 39.23,1.57 83.57,10.96l73.34 -83.02c-35.81,-7.83 -54.57,-9.39 -76.74,-9.39 -68.22,0 -122.8,25.06 -204.67,92.41 -75.05,62.66 -93.81,86.15 -115.97,142.55 -13.65,37.59 -51.18,164.47 -68.23,233.39l-122.79 490.28c-1.7,9.4 -3.41,18.8 -3.41,28.2 0,48.56 20.47,95.55 71.63,95.55 17.05,0 88.68,-45.43 303.58,-187.97zm409.33 0l0 -34.46c-23.87,12.53 -39.23,21.94 -46.05,25.07 -122.8,70.48 -136.45,76.75 -160.32,76.75 -30.7,0 -30.7,-37.59 -30.7,-68.91 0,-28.2 76.76,-332.08 139.85,-552.94 66.52,-230.26 81.88,-258.46 156.91,-258.46 22.18,0 39.23,1.57 83.58,10.96l73.34 -83.02c-35.81,-7.83 -54.57,-9.39 -76.75,-9.39 -68.21,0 -122.8,25.06 -204.66,92.41 -75.05,62.66 -93.81,86.15 -115.98,142.55 -13.64,37.59 -51.17,164.47 -68.23,233.39l-122.79 490.28c-1.7,9.4 -3.41,18.8 -3.41,28.2 0,48.56 20.47,95.55 71.63,95.55 17.05,0 88.69,-45.43 303.58,-187.97zm411.04 26.63l6.82 -46.99c-83.57,46.99 -167.15,86.15 -182.49,86.15 -18.76,0 -32.4,-18.8 -32.4,-43.86 0,-56.4 20.47,-115.92 35.81,-175.44l52.87 -198.94c8.52,-32.89 22.18,-83.02 22.18,-101.81 0,-12.52 -5.12,-20.36 -20.47,-20.36 -39.22,0 -216.6,106.52 -267.77,137.84l-1.71 45.43c39.23,-20.36 100.63,-57.95 124.51,-57.95 18.77,0 20.46,17.23 20.46,31.32 0,34.46 -37.52,150.38 -56.28,222.44 -18.77,72.05 -49.46,145.67 -49.46,216.15 0,40.73 17.06,65.79 44.35,65.79 28.99,0 59.7,-14.09 158.61,-73.63 27.29,-17.23 40.93,-26.62 144.97,-86.15zm11.94 -726.81c-30.7,-45.43 -32.41,-50.12 -49.46,-86.15 -1.71,-6.26 -5.12,-14.09 -8.53,-20.36 -10.23,7.82 -17.06,12.52 -23.89,17.23 -46.04,36.02 -49.46,37.59 -93.8,65.79 13.65,37.59 25.59,56.39 64.81,109.65l56.29 -47c10.22,-6.26 15.35,-10.96 54.58,-39.16zm692.45 225.57l-197.84 3.13c-104.05,1.56 -133.04,6.26 -184.19,34.46 -81.88,46.99 -139.86,90.85 -175.68,133.15 -51.16,61.08 -112.56,250.62 -112.56,346.17 0,39.16 10.22,67.35 37.51,101.81l-196.14 155.07c-85.27,68.92 -124.5,120.61 -124.5,164.48 0,57.95 75.05,90.85 204.67,90.85 156.91,0 279.71,-40.72 393.97,-131.58 73.34,-57.96 90.39,-90.85 126.2,-245.92l85.29 -352.44c6.82,-34.46 15.35,-64.22 22.17,-89.29l25.58 -87.72c3.41,-14.09 6.82,-25.06 8.53,-34.45 30.7,-7.83 32.4,-7.83 86.98,-87.72zm-366.69 728.37c-22.18,93.98 -37.52,130.01 -68.23,159.77 -37.51,39.16 -107.44,59.52 -208.07,59.52 -110.86,0 -170.56,-28.19 -170.56,-78.32 0,-64.22 46.06,-103.39 520.2,-437.03l-73.34 296.05zm254.12 -642.22c-8.52,6.26 -18.76,14.09 -27.28,18.8 -54.58,36.02 -66.52,50.13 -81.87,87.72l-56.29 183.26c-34.1,20.37 -75.04,48.57 -218.3,147.24 -30.7,-28.19 -42.63,-53.25 -42.63,-90.85 0,-53.25 40.93,-189.52 76.75,-264.72 34.11,-64.22 69.92,-79.88 194.44,-79.88 11.93,0 32.4,0 54.58,-1.57l46.04 0c18.77,0 35.82,0 54.58,0zm625.93 390.03l0 -45.43c-63.1,46.99 -184.19,142.54 -271.17,142.54 -95.51,0 -104.05,-93.98 -102.34,-155.07 39.22,-17.23 206.36,-133.15 240.47,-156.63 63.11,-47 109.17,-97.12 109.17,-170.74 0,-51.7 -34.12,-90.85 -97.22,-90.85 -61.4,0 -114.27,28.19 -175.67,72.05 -150.09,106.52 -202.96,281.95 -202.96,429.19 0,95.55 42.63,162.91 146.68,162.91 131.32,0 283.12,-123.74 353.04,-187.96zm-150.09 -341.48c0,112.78 -139.85,177 -221.72,234.96 6.81,-78.32 71.63,-300.74 168.85,-300.74 37.52,0 52.87,31.32 52.87,65.78zm965.34 307.02c-170.56,89.28 -177.38,92.42 -194.44,92.42 -17.06,0 -27.28,-17.24 -27.28,-42.29 0,-32.9 11.93,-84.59 44.34,-192.67 80.16,-263.16 80.16,-263.16 80.16,-274.12 0,-17.23 -11.93,-26.63 -34.1,-26.63 -25.59,0 -63.11,14.09 -124.5,50.13l-233.66 133.15c15.35,-51.7 40.93,-150.38 40.93,-162.91 0,-10.96 -10.24,-20.37 -22.18,-20.37 -18.76,0 -141.57,57.96 -267.77,126.88l-10.23 40.72c109.16,-45.43 115.98,-47 131.33,-47 11.93,0 20.47,9.4 20.47,21.93 0,32.9 -32.42,162.91 -75.05,305.45l-39.23 126.87 -23.88 84.59 127.91 -45.43 100.63 -368.11c213.19,-123.74 218.3,-125.31 242.18,-125.31 11.93,0 18.76,7.83 18.76,20.37 0,23.5 -13.63,83.02 -63.1,261.59 -37.52,139.41 -44.35,166.04 -44.35,195.8 0,21.93 6.82,42.29 25.58,70.48 78.46,-32.89 196.15,-100.24 315.54,-181.7l11.93 -43.86zm547.48 51.69l3.41 -50.12c-131.32,86.15 -221.72,130 -276.28,130 -61.41,0 -97.22,-43.86 -97.22,-119.04 0,-75.19 20.47,-175.44 52.87,-249.06 34.11,-83.03 78.46,-125.31 127.91,-125.31 40.93,0 63.11,29.76 71.63,98.68l98.92 -53.26c1.7,-7.83 1.7,-17.24 1.7,-17.24 0,-67.35 -37.51,-109.65 -97.21,-109.65 -30.7,0 -49.46,6.26 -110.86,43.87 -127.91,73.62 -155.2,97.11 -192.73,161.34 -47.76,84.59 -83.57,217.72 -83.57,314.85 0,90.85 46.05,144.11 124.5,144.11 81.87,0 221.72,-62.66 376.92,-169.18zm581.59 -17.23l0 -45.43c-63.1,46.99 -184.19,142.54 -271.17,142.54 -95.51,0 -104.05,-93.98 -102.34,-155.07 39.22,-17.23 206.36,-133.15 240.47,-156.63 63.11,-47 109.17,-97.12 109.17,-170.74 0,-51.7 -34.12,-90.85 -97.22,-90.85 -61.4,0 -114.27,28.19 -175.67,72.05 -150.09,106.52 -202.96,281.95 -202.96,429.19 0,95.55 42.64,162.91 146.68,162.91 131.32,0 283.12,-123.74 353.04,-187.96zm-150.09 -341.48c0,112.78 -139.85,177 -221.72,234.96 6.82,-78.32 71.63,-300.74 168.85,-300.74 37.52,0 52.87,31.32 52.87,65.78zm1940.91 444.86c-29,1.56 -56.28,3.13 -64.81,4.69 -28.99,1.57 -56.29,3.13 -69.92,3.13 -54.58,0 -85.29,-23.49 -85.29,-62.65 0,-40.72 1.71,-50.13 46.06,-216.16l110.86 -397.87c68.22,-217.72 76.76,-234.96 121.1,-234.96 15.35,0 37.52,1.57 59.68,6.27 5.12,1.56 25.59,4.7 46.06,7.83l69.92 -87.72c-30.69,-7.83 -47.75,-9.4 -68.21,-9.4 -44.35,0 -81.87,12.53 -143.26,45.43 -95.51,50.13 -112.58,64.22 -173.97,144.11l-230.25 294.48 -192.73 256.9 -42.64 56.39c-22.18,-238.09 -66.51,-584.27 -88.69,-693.92l-52.87 39.16c-64.81,-7.83 -97.21,-9.4 -138.15,-9.4 -114.28,0 -182.49,26.63 -262.65,103.39 -92.1,84.59 -146.68,184.83 -146.68,264.72 0,45.43 10.23,86.15 39.23,144.11l129.61 -83.02c-40.93,-81.46 -54.58,-120.61 -54.58,-166.04 0,-101.81 83.57,-158.21 231.95,-158.21 39.23,0 66.52,1.57 122.8,9.4 -75.05,280.39 -167.14,573.3 -197.85,623.42 -32.4,54.83 -75.04,78.32 -148.38,78.32 -28.99,0 -28.99,0 -126.2,-7.82l-78.46 108.08c30.7,1.57 56.28,1.57 73.34,1.57 133.04,0 221.72,-36.03 295.07,-119.05 54.57,-64.22 75.04,-103.39 115.96,-231.83l110.88 -383.76c59.68,565.46 61.39,578 64.8,703.31l83.57 -59.52c59.7,-117.48 173.97,-280.39 455.39,-648.49l-17.06 68.92c-5.12,23.5 -18.76,70.48 -39.22,139.41l-122.81 418.22c-13.63,36.03 -22.17,68.92 -22.17,90.85 0,21.94 18.76,40.73 40.93,40.73 8.53,0 18.76,-1.57 32.4,-3.14l160.32 -25.06 80.17 -9.39c5.1,-1.57 18.76,-3.14 40.93,-6.27l35.81 -39.15zm782.84 -92.42l0 -45.43c-32.4,18.8 -144.97,92.42 -172.26,92.42 -17.06,0 -20.47,-20.37 -20.47,-34.46 0,-57.96 76.75,-344.61 97.21,-421.36 6.82,-9.39 40.93,-48.56 49.47,-56.39 -57.99,-14.09 -133.04,-23.5 -201.26,-23.5 -114.28,0 -126.21,10.96 -204.67,61.09 -46.04,29.76 -88.68,47 -121.08,93.98 -85.28,122.18 -117.69,280.39 -117.69,379.07 0,47 13.64,131.58 73.35,131.58 63.1,0 216.59,-117.48 305.28,-173.87l-11.94 70.49c-10.22,53.25 -20.47,101.81 20.47,101.81 42.64,0 254.14,-142.55 303.59,-175.44zm-301.88 -57.96c-51.17,34.46 -163.73,119.05 -208.07,119.05 -44.35,0 -52.88,-42.29 -52.88,-79.89 0,-100.25 34.11,-214.59 78.46,-294.48 28.99,-54.83 56.29,-100.25 133.04,-100.25 42.64,0 95.51,10.96 138.14,18.8l-88.68 336.78zm1021.62 56.39l6.82 -48.56c-22.17,12.53 -39.22,23.5 -47.76,28.2 -93.8,59.52 -141.56,84.58 -156.9,84.58 -13.65,0 -23.88,-17.23 -23.88,-40.72 0,-51.69 143.26,-618.72 179.07,-715.85 37.52,-93.98 75.05,-130 136.45,-130 22.18,0 39.23,3.13 78.46,12.52l59.7 -87.71c-25.59,-4.7 -39.23,-6.27 -54.58,-6.27 -40.93,0 -63.11,6.27 -102.34,26.63 -42.64,21.93 -100.63,62.66 -148.38,103.39 -83.58,73.62 -88.69,84.59 -133.04,245.92l-13.64 50.13c-30.7,-6.27 -56.28,-9.4 -69.93,-9.4 -52.87,0 -199.54,84.59 -267.76,153.51 -57.99,61.08 -134.74,281.95 -134.74,390.02 0,59.53 34.11,120.62 64.8,120.62 32.41,0 107.46,-42.29 286.54,-161.35 -8.52,39.16 -13.64,84.59 -13.64,112.78 0,31.33 13.64,48.57 37.52,48.57 27.28,0 175.67,-83.02 317.23,-177.01zm-327.47 -42.28c-144.96,93.98 -182.48,114.34 -206.37,114.34 -23.87,0 -35.81,-23.49 -35.81,-68.91 0,-51.7 10.24,-111.22 30.71,-180.14 49.46,-158.2 115.98,-236.52 202.95,-236.52 30.7,0 52.88,10.96 88.69,42.29l-80.17 328.94zm888.6 32.89l0 -45.43c-63.11,46.99 -184.2,142.54 -271.18,142.54 -95.51,0 -104.05,-93.98 -102.34,-155.07 39.22,-17.23 206.36,-133.15 240.48,-156.63 63.1,-47 109.16,-97.12 109.16,-170.74 0,-51.7 -34.11,-90.85 -97.22,-90.85 -61.4,0 -114.27,28.19 -175.67,72.05 -150.09,106.52 -202.96,281.95 -202.96,429.19 0,95.55 42.64,162.91 146.68,162.91 131.32,0 283.12,-123.74 353.05,-187.96zm-150.1 -341.48c0,112.78 -139.85,177 -221.72,234.96 6.82,-78.32 71.63,-300.74 168.85,-300.74 37.52,0 52.87,31.32 52.87,65.78zm1833.46 -465.22c0,-28.19 -3.4,-42.29 -15.35,-73.62 -34.11,-18.8 -47.76,-23.5 -88.69,-26.63 -46.05,18.8 -64.81,31.32 -104.04,62.65 44.35,34.46 59.69,65.79 59.69,119.05 0,83.02 -57.99,198.93 -155.19,316.41 -92.11,109.65 -160.32,175.44 -467.33,449.55l114.27 -718.98c40.94,-17.23 51.17,-23.5 76.76,-42.29 -81.87,-7.83 -121.1,-10.96 -173.97,-10.96 -133.04,0 -216.59,23.5 -300.17,81.46 -93.8,65.78 -148.38,159.76 -148.38,252.19 0,40.72 8.53,70.48 30.69,120.61l129.63 -65.78c-22.18,-53.26 -29,-81.46 -29,-125.31 0,-120.61 86.98,-206.77 208.08,-206.77 20.47,0 44.35,1.57 73.34,4.7 -44.34,316.41 -110.86,729.94 -138.16,855.25 47.77,-7.83 54.59,-9.39 126.22,-25.06l184.19 -181.7c266.06,-250.63 402.51,-388.47 474.14,-476.18 95.51,-119.05 143.26,-222.44 143.26,-308.59zm237.07 831.75l6.83 -46.99c-83.58,46.99 -167.16,86.15 -182.5,86.15 -18.76,0 -32.4,-18.8 -32.4,-43.86 0,-56.4 20.47,-115.92 35.81,-175.44l52.87 -198.94c8.53,-32.89 22.18,-83.02 22.18,-101.81 0,-12.52 -5.12,-20.36 -20.47,-20.36 -39.22,0 -216.59,106.52 -267.77,137.84l-1.71 45.43c39.23,-20.36 100.63,-57.95 124.51,-57.95 18.77,0 20.47,17.23 20.47,31.32 0,34.46 -37.52,150.38 -56.28,222.44 -18.77,72.05 -49.47,145.67 -49.47,216.15 0,40.73 17.06,65.79 44.35,65.79 28.99,0 59.7,-14.09 158.62,-73.63 27.28,-17.23 40.92,-26.62 144.96,-86.15zm11.94 -726.81c-30.7,-45.43 -32.41,-50.12 -49.46,-86.15 -1.71,-6.26 -5.12,-14.09 -8.53,-20.36 -10.23,7.82 -17.06,12.52 -23.88,17.23 -46.05,36.02 -49.47,37.59 -93.8,65.79 13.64,37.59 25.58,56.39 64.8,109.65l56.29 -47c10.23,-6.26 15.35,-10.96 54.58,-39.16zm515.08 277.25c-34.11,-37.59 -66.51,-53.26 -114.27,-53.26 -124.5,0 -284.83,136.28 -284.83,239.66 0,48.56 27.29,86.15 92.09,128.44 85.29,54.82 97.22,68.92 97.22,108.08 0,56.39 -78.46,122.18 -144.97,122.18 -37.52,0 -66.52,-18.8 -83.58,-53.26 -11.93,-23.5 -15.35,-46.99 -17.06,-100.24 -18.76,12.52 -32.4,20.36 -39.22,25.06 -13.64,7.83 -28.99,15.67 -44.34,25.06 0,0 -13.65,7.83 -30.71,18.8 -1.7,14.1 -3.41,26.63 -3.41,36.03 0,67.35 51.18,114.35 126.21,114.35 52.88,0 126.21,-20.37 180.79,-48.57 100.62,-53.25 162.03,-133.14 162.03,-211.46 0,-57.95 -11.94,-70.48 -107.46,-125.31 -57.99,-34.45 -81.86,-64.22 -81.86,-104.95 0,-53.26 49.46,-100.24 107.45,-100.24 39.23,0 68.21,17.23 105.74,61.09 57.99,-51.7 57.99,-51.7 80.17,-81.46zm428.09 449.55l6.83 -46.99c-83.57,46.99 -167.15,86.15 -182.49,86.15 -18.76,0 -32.41,-18.8 -32.41,-43.86 0,-56.4 20.47,-115.92 35.82,-175.44l52.87 -198.94c8.52,-32.89 22.18,-83.02 22.18,-101.81 0,-12.52 -5.12,-20.36 -20.47,-20.36 -39.22,0 -216.6,106.52 -267.77,137.84l-1.71 45.43c39.23,-20.36 100.63,-57.95 124.5,-57.95 18.77,0 20.47,17.23 20.47,31.32 0,34.46 -37.52,150.38 -56.28,222.44 -18.77,72.05 -49.46,145.67 -49.46,216.15 0,40.73 17.06,65.79 44.35,65.79 28.99,0 59.69,-14.09 158.61,-73.63 27.29,-17.23 40.93,-26.62 144.96,-86.15zm11.95 -726.81c-30.71,-45.43 -32.41,-50.12 -49.47,-86.15 -1.7,-6.26 -5.11,-14.09 -8.52,-20.36 -10.24,7.82 -17.06,12.52 -23.89,17.23 -46.04,36.02 -49.46,37.59 -93.8,65.79 13.64,37.59 25.59,56.39 64.81,109.65l56.29 -47c10.22,-6.26 15.35,-10.96 54.58,-39.16zm654.92 343.05c0,-72.05 -39.23,-119.05 -100.62,-119.05 -56.28,0 -104.04,23.5 -274.59,134.72 10.24,-36.03 15.35,-61.09 18.76,-72.05 37.52,-169.18 37.52,-169.18 42.64,-183.27 13.64,-50.13 39.23,-111.22 57.99,-140.98 28.99,-45.43 59.7,-59.52 124.5,-59.52l47.76 0 25.58 0 69.93 -90.85c-23.88,-3.13 -59.69,-4.7 -76.75,-4.7 -61.4,0 -92.1,17.24 -235.37,125.31 -115.98,86.15 -115.98,86.15 -175.68,330.51l-97.2 386.9 -61.4 238.09 17.06 6.26 54.58 -42.29c47.75,15.67 83.57,23.5 115.97,23.5 34.11,0 64.81,-9.4 109.16,-34.46 35.81,-21.93 75.05,-42.29 115.98,-64.22 59.69,-29.76 97.21,-64.22 126.2,-114.35 54.58,-89.28 95.51,-227.13 95.51,-319.54zm-189.31 286.65c-46.05,104.95 -105.74,156.64 -180.78,156.64 -34.11,0 -68.23,-9.4 -112.57,-29.77l90.39 -333.63c97.22,-65.79 156.91,-93.99 196.15,-93.99 34.1,0 56.28,29.77 56.28,76.76 0,62.66 -20.47,156.64 -49.47,224z"/>
   <path class="fil0" d="M21475.81 8830.18l0 -34.46c-23.88,12.53 -39.23,21.94 -46.06,25.07 -122.79,70.48 -136.44,76.75 -160.31,76.75 -30.7,0 -30.7,-37.59 -30.7,-68.91 0,-28.2 76.76,-332.08 139.85,-552.94 66.52,-230.26 81.88,-258.46 156.91,-258.46 22.18,0 39.23,1.57 83.57,10.96l73.35 -83.02c-35.82,-7.83 -54.57,-9.39 -76.75,-9.39 -68.22,0 -122.8,25.06 -204.67,92.41 -75.05,62.66 -93.81,86.15 -115.97,142.55 -13.65,37.59 -51.18,164.47 -68.23,233.39l-122.79 490.28c-1.7,9.4 -3.41,18.8 -3.41,28.2 0,48.56 20.47,95.55 71.63,95.55 17.05,0 88.68,-45.43 303.58,-187.97zm537.25 1.57l0 -45.43c-63.11,46.99 -184.2,142.54 -271.18,142.54 -95.51,0 -104.04,-93.98 -102.34,-155.07 39.22,-17.23 206.36,-133.15 240.48,-156.63 63.1,-47 109.16,-97.12 109.16,-170.74 0,-51.7 -34.11,-90.85 -97.22,-90.85 -61.4,0 -114.27,28.19 -175.67,72.05 -150.09,106.52 -202.96,281.95 -202.96,429.19 0,95.55 42.64,162.91 146.68,162.91 131.32,0 283.12,-123.74 353.05,-187.96zm-150.09 -341.48c0,112.78 -139.86,177 -221.73,234.96 6.82,-78.32 71.64,-300.74 168.85,-300.74 37.52,0 52.88,31.32 52.88,65.78zm467.32 422.92l-39.23 -53.26c-11.93,-17.23 -20.47,-29.76 -40.93,-62.65 -5.12,4.7 -13.64,10.96 -23.88,18.8 -13.64,9.4 -27.29,20.37 -40.92,31.33l-15.36 10.96 -46.05 32.89c13.63,34.46 47.75,84.59 80.16,120.61 64.81,-43.86 80.16,-54.82 126.21,-98.68z"/>
  </g>
  <path class="fil1" d="M18702.51 9268.52l4379.78 0 50.88 -141.19 -4379.78 0 -7743.06 0c-15.73,54.04 -35.1,98.28 -70.76,141.19l7762.95 0zm-8515.51 -141.19l-6135.32 0c-15.73,54.04 -35.1,98.28 -70.76,141.19l6129.98 0c7.64,-53.02 38.41,-100.25 76.11,-141.19zm-6958.64 0l-3177.48 0 -50.88 141.19 3152.25 0c7.63,-53.02 38.42,-100.25 76.11,-141.19z"/>
  <path class="fil2" d="M16703.8 4993.23l-508.77 0 163.42 -453.47 508.77 0 -163.42 453.47zm-3895.67 -453.47l-777.8 541.95 -401.86 0 571.35 -541.95 608.31 0zm-2332.1 -15.24l0 0c149.73,0 260.87,56.02 334.46,168.05 73.06,112.04 85.28,244.49 35.72,396.85l-593.07 1643.88c-44.04,116.75 -117.09,212.03 -219.28,286.38 -102.08,73.82 -211.55,110.99 -327.77,110.99l-946.54 0 36.12 -19.9c131.07,-74.87 222.01,-179.04 272.36,-313.07l87.91 -243.97 584.26 0 523.44 -1450.71 -737.66 0 -589 1630.28c-44.04,116.75 -117.09,212.03 -219.28,286.38 -101.56,73.82 -211.02,110.99 -327.77,110.99l-173.29 0 940.61 -2606.14 1318.77 0zm-2688.58 532.92c73.76,0 135.87,25.88 186.97,77 51.12,51.11 77,113.22 77,186.97 0,73.12 -25.88,135.87 -77,186.97 -51.11,51.12 -113.22,77 -186.97,77 -73.12,0 -135.87,-25.88 -186.98,-77 -51.11,-51.11 -76.99,-113.86 -76.99,-186.97 0,-73.76 25.88,-135.87 76.99,-186.97 51.12,-51.12 113.87,-77 186.98,-77zm-3644.58 2226.12c73.76,0 135.87,25.88 186.97,77 51.12,51.11 77,113.22 77,186.97 0,73.12 -25.88,135.87 -77,186.97 -51.11,51.12 -113.22,77 -186.97,77 -73.12,0 -135.87,-25.88 -186.98,-77 -51.11,-51.11 -76.99,-113.86 -76.99,-186.97 0,-73.76 25.88,-135.87 76.99,-186.97 51.12,-51.12 113.87,-77 186.98,-77z"/>
  <path class="fil3" d="M15427.48 6314.92c-81.27,225.51 -224.66,415.37 -430.4,570.22 -205.5,154.23 -423.89,231.65 -654.92,231.65l-1824.93 0 166.08 -460.84 1504.19 0c100.76,0 193.98,-23.36 279.85,-70.66 98.14,-54.08 164.26,-128.42 198.14,-222.44 79.28,-219.98 -35.93,-329.96 -345.62,-329.96l-759.47 0c-218.74,0 -386.09,-67.59 -502.27,-202.15 -115.96,-135.19 -136.52,-306.62 -61.45,-514.92 83.04,-230.42 230.85,-417.21 443.65,-561 212.58,-143.17 450.47,-215.05 713.46,-215.05l1743.82 0 -159.42 442.4 -1537.37 0c-68.81,0 -148.66,28.88 -239.31,86.03 -90.85,57.76 -150.23,125.34 -178.35,203.38 -31.67,87.87 -24.45,161.61 21.45,221.82 46.1,59.61 116.98,89.71 212.83,89.71l836.89 0c260.53,0 441.01,66.98 541.65,200.32 100.43,133.95 111.01,310.92 31.52,531.5zm-3371.39 812.93l-899.56 0c-218.74,0 -374.74,-94.01 -467.96,-282.04 -93.22,-188.02 -95.55,-404.93 -6.98,-650.71 96.54,-267.9 267.9,-499.55 514.06,-694.95 246.14,-195.4 477.36,-293.09 693.66,-293.09l855.32 0 -142.16 394.48 -626.74 0c-78.66,0 -148.07,6.76 -208.24,20.28 -60.17,13.52 -120.7,39.94 -181.57,79.27 -112.59,73.74 -191.48,173.28 -236.65,298.62l1106.02 0 -143.49 398.17 -1106.02 0c-21.26,58.99 -32.43,108.76 -33.53,149.31 -1.1,40.56 11.93,81.12 39.72,121.67 27.17,40.55 67.19,67.58 120.08,81.11 53.5,13.51 121.73,20.28 205.91,20.28l647.02 0 -128.88 357.61zm3882.43 -11.06l-508.77 0 688.23 -1909.72 508.77 0 -688.23 1909.72zm2345.22 -62.67c-46.95,130.26 -96.08,235.95 -147.44,317.06 -51.35,81.11 -128.28,161.6 -230.81,241.48 -102.53,79.88 -200.66,133.96 -294.41,162.22 -93.74,28.25 -203.32,42.39 -328.65,42.39l-12774.17 0 146.15 -405.54 12603.36 0c32.57,0 55.92,0 70.66,0 41.78,0 76.07,-3.07 102.87,-9.22 26.79,-6.14 58.92,-20.28 96.99,-42.39 24.1,-12.28 54.19,-34.41 90.28,-66.36 36.09,-31.95 58.13,-58.98 66.1,-81.11l31.88 -88.48 -669.15 0c-234.1,0 -393.17,-100.77 -478.46,-302.31 -79.89,-189.25 -73.91,-410.45 17.33,-663.61 93.01,-258.08 253.89,-481.12 482.64,-669.15 228.74,-188.01 466.01,-282.03 711.79,-282.03l1168.69 0 -665.64 1847.05zm-413.37 -346.56l380.29 -1065.46 -453.48 0c-135.18,0 -258.9,53.46 -371.17,160.37 -112.27,106.92 -198.07,242.71 -257.41,407.38 -45.18,125.35 -50.98,233.5 -17.39,324.44 44.41,115.51 148.93,173.27 313.61,173.27l405.54 0zm2540.16 409.23l-512.46 0 453.07 -1257.18c11.51,-31.95 14.53,-60.83 9.08,-86.63 -5.44,-25.81 -17.25,-51.01 -35.43,-75.59 -34.1,-41.77 -83.1,-62.67 -147,-62.67l-501.4 0 -534.1 1482.07 -512.46 0 688.23 -1909.72 980.68 0c174.5,0 297.54,9.82 369.1,29.49 112.27,29.49 187.11,94.62 224.53,195.4 41.05,117.98 36.33,247.01 -14.14,387.1l-467.68 1297.73zm2362.97 -582.5c-58.46,162.22 -160.74,301.08 -306.82,416.59 -146.09,115.52 -299.02,173.28 -458.78,173.28l-1264.55 0 124.89 -346.55 1036.59 0c73.74,0 142.44,-18.44 205.51,-55.31 63.66,-36.86 107.9,-89.71 132.7,-158.52 57.58,-159.75 -21.78,-239.64 -237.45,-239.64l-529.04 0c-113.06,0 -202.34,-54.07 -269.05,-162.22 -66.1,-108.14 -76.88,-224.89 -31.7,-350.24 63.77,-176.96 154.47,-319.51 272.1,-427.66 135.23,-122.89 291.31,-184.33 468.27,-184.33l1216.63 0 -130.19 361.29 -1083.9 0c-41.78,0 -85.35,20.28 -130.68,60.83 -45.34,40.55 -77.31,86.64 -95.91,138.26 -20.37,56.53 -17.59,105.07 8.35,145.62 25.94,40.55 67.18,60.83 123.71,60.83l571.45 0c179.42,0 302.09,53.46 368.02,160.37 65.93,106.92 69.21,242.71 9.87,407.39zm-437.72 877.44l-3811 0 -146.15 405.54 3811 0 146.15 -405.54zm-19250.59 -1267.34l-525.35 0 -627.57 1086.93c-295.67,515 -646.33,772.49 -1051.99,772.49 -249.09,0 -458.07,-89.28 -626.92,-268.5 -168.87,-179.21 -252.97,-401.13 -252.97,-665.1 0,-215.44 65.34,-422.47 195.39,-621.74 130.04,-199.27 307.97,-364.9 532.46,-496.24 168.22,-96.39 354.55,-163.69 559.64,-203.15 204.44,-39.46 476.82,-58.88 817.14,-58.88l140.39 0 149.45 -274.96c208.98,-383.01 463.24,-638.57 764.09,-766.02 193.45,-82.17 446.41,-123.57 758.26,-123.57 79.58,0 142.34,17.47 187.62,53.05 45.94,35.58 68.58,84.76 68.58,148.16 0,29.11 -7.76,62.75 -22.65,102.23l-17.47 43.34 -326.08 817.78 144.28 0 49.17 0c141.05,0 211.56,61.47 211.56,184.39 0,74.41 -29.11,138.46 -87.34,190.87 -57.58,52.4 -128.1,78.93 -211.56,78.93l-51.11 0 -238.74 0 -489.25 1213.8 309.26 0 49.17 0c141.69,0 212.21,60.82 212.21,182.45 0,75.7 -29.11,140.41 -87.34,192.81 -58.22,52.4 -128.76,78.93 -212.21,78.93l-51.11 0 -405.66 0c-108.69,0 -197.21,-27.98 -265.91,-84.11 -69.09,-56.44 -103.52,-129.39 -103.52,-219.33 0,-69.22 26.46,-167.99 77.64,-295.67l428.44 -1068.88zm185.68 -454.19l273.02 -673.5c-133.93,8.41 -247.14,51.11 -338.37,128.1 -91.87,76.34 -196.69,215.44 -313.79,416.65l-77.64 128.74 456.77 0zm-1285.55 454.19l-161.11 0c-361.01,0 -647.62,67.28 -860.48,201.21 -135.22,86.05 -242.61,193.45 -322.84,322.2 -80.23,129.39 -120.34,259.44 -120.34,390.77 0,120.34 38.82,223.21 115.81,308.62 77,85.4 170.16,128.09 280.15,128.09 190.86,0 359.72,-126.8 505.93,-379.13l562.88 -971.76zm2747.07 -65.99l-64.05 159.8c-58.22,141.69 -133.92,212.85 -227.09,212.85 -56.29,0 -103.52,-16.82 -141.04,-51.11 -38.17,-34.29 -56.94,-76.99 -56.94,-127.45 0,-29.12 13.59,-78.29 41.41,-148.16l214.14 -529.88c51.12,-127.45 124.22,-191.51 219.34,-191.51 93.16,0 150.09,44 172.09,132.64l14.89 58.87c7.76,30.41 18.77,49.82 34.29,56.94 14.88,7.76 51.76,11.64 111.28,11.64l443.83 0c164.98,0 247.14,58.23 247.14,174.69 0,160.44 -104.82,240.67 -313.79,240.67l-20.71 18.77c-198.62,193.45 -298.25,342.9 -298.25,448.35 0,105.46 56.93,157.86 170.8,157.86l239.38 0c161.11,0 241.97,55.64 241.97,166.28 0,77.64 -28.46,138.45 -84.75,181.15 -56.29,42.7 -135.23,64.05 -236.8,64.05l-372.01 0c-125.52,0 -228.39,-43.34 -308.62,-130.69 -79.58,-87.34 -119.69,-201.21 -119.69,-340.31 0,-88.64 21.35,-174.69 64.05,-258.15 42.7,-83.46 118.4,-185.68 226.45,-307.32l-197.34 0zm2058.05 -415.36l58.88 0c159.8,0 240.03,56.29 240.03,169.51 0,77.64 -28.47,137.81 -85.41,181.15 -56.28,43.35 -134.57,64.7 -234.2,64.7l-138.46 0 -253.62 624.98 212.21 0c159.8,0 239.38,56.29 239.38,168.22 0,76.35 -27.82,136.51 -84.11,179.21 -55.64,42.7 -134.58,64.05 -234.85,64.05l-339.67 0c-95.75,0 -171.46,-22 -227.74,-66.64 -56.29,-44 -84.11,-104.16 -84.11,-179.86 0,-46.58 11.64,-98.33 34.29,-155.27l35.58 -83.46 223.21 -551.23 -28.47 0c-142.98,0 -214.14,-54.99 -214.14,-165.63 0,-78.93 28.46,-140.4 84.75,-183.74 56.94,-44 135.87,-65.99 237.44,-65.99l87.34 0 100.28 -247.79 21.36 -51.11c58.87,-139.75 152.68,-209.62 280.79,-209.62 51.76,0 96.4,17.47 133.28,51.76 37.52,34.93 56.29,76.99 56.29,126.16 0,47.88 -16.83,108.05 -49.82,181.15l-70.52 149.45zm747.27 1040.35l214.15 0c158.5,0 237.44,56.29 237.44,168.22 0,76.35 -27.82,136.51 -84.11,179.21 -55.64,42.7 -133.93,64.05 -234.86,64.05l-301.49 0c-111.28,0 -198.62,-22.65 -262.02,-68.58 -64.05,-45.29 -95.75,-107.4 -95.75,-185.68 0,-42.05 13.58,-95.1 40.1,-159.15l313.15 -770.55 20.7 -53.7c58.23,-142.99 151.39,-214.15 280.8,-214.15 53.05,0 98.98,17.47 137.81,53.05 38.17,35.59 57.58,78.29 57.58,127.46 0,40.75 -16.83,102.87 -51.12,186.32l-272.37 673.51z"/>
  <g id="_1667642609152">
   <path class="fil2" d="M6700.47 1879.14l391.47 -312.2 587.19 -468.27 195.73 -156.08c64.4,80.75 123,164.27 175.86,250.04 146.35,237.49 248.66,492.27 308.13,753.65 22.71,99.8 39.16,200.57 49.44,301.7l-249.07 25.55 -747.23 76.66c-6.16,-60.67 -16.04,-121.14 -29.66,-181.02l732.38 -167.16c-53.52,-235.25 -145.59,-464.55 -277.31,-678.29l-639.94 393.25 -426.72 262.23c42.61,69.34 76.85,143.87 101.63,221.93 8.3,26.12 15.55,52.63 21.7,79.48 9.05,39.56 15.75,79.86 19.93,120.67 8.18,79.83 6.79,161.68 -5.09,244.06l-247.83 -35.46c8.91,-61.79 9.94,-123.17 3.81,-183.04 -3.14,-30.62 -8.14,-60.84 -14.95,-90.51 -4.61,-20.13 -10.03,-40.01 -16.27,-59.6 -18.6,-58.55 -44.27,-114.44 -76.24,-166.45 -16.01,-26.05 -33.6,-51.13 -52.67,-75.08l195.7 -156.05zm-1759.16 847.17l-488.17 111.42 -732.21 167.13 -244.07 55.72c-22.99,-100.69 -39.54,-201.37 -49.96,-301.58 -28.82,-277.48 -10.45,-551.41 49.38,-812.72 22.86,-99.76 51.75,-197.69 86.36,-293.26l235.49 85.05 706.48 255.13c-20.77,57.35 -38.1,116.11 -51.81,175.97l-732.39 -167.16c-53.85,235.17 -70.37,481.71 -44.45,731.44l747.2 -76.66 498.24 -51.12c-8.31,-80.97 -6.81,-162.96 4.71,-244.04 3.85,-27.14 8.83,-54.17 14.95,-81.03 9,-39.56 20.46,-78.78 34.4,-117.36 27.26,-75.48 64.02,-148.62 110.48,-217.68l207.91 139.49c-34.84,51.79 -62.41,106.65 -82.86,163.26 -10.46,28.95 -19.06,58.35 -25.81,88.02 -4.58,20.15 -8.32,40.42 -11.2,60.77 -8.65,60.81 -9.77,122.31 -3.54,183.04 3.13,30.41 8.1,60.64 14.9,90.48l-244.02 55.7zm193.36 -847.17l-391.47 -312.19 -587.19 -468.28 -195.74 -156.08c64.4,-80.76 132.79,-156.47 204.64,-227.09 198.97,-195.54 424.6,-351.97 666.19,-468.11 92.25,-44.34 186.83,-82.81 283.14,-115.33l80.34 237.14 241 711.42c-57.78,19.52 -114.53,42.59 -169.88,69.2l-325.94 -676.82c-217.43,104.53 -420.5,245.31 -599.59,421.29l525.81 536.38 350.6 357.67c58.12,-56.98 123.16,-106.94 193.75,-148.48 23.62,-13.89 47.86,-26.86 72.66,-38.82 36.55,-17.64 74.35,-33.12 113.21,-46.29 76.01,-25.74 156.1,-42.59 239.07,-49.35l20.58 249.52c-62.22,5.06 -122.3,17.71 -179.31,37.01 -29.14,9.87 -57.49,21.49 -84.9,34.71 -18.61,8.97 -36.79,18.7 -54.5,29.12 -52.94,31.16 -101.71,68.62 -145.31,111.36 -21.84,21.41 -42.36,44.14 -61.47,68.05l-195.69 -156.05zm782.91 -377.03l-0.01 -500.71 0 -751.05 0 -250.36c103.29,0 205.12,6.26 305.13,18.41 276.92,33.65 539.91,112.52 781.35,228.99 92.18,44.49 181.22,94.44 266.7,149.46l-135.33 210.66 -405.94 632c-51.29,-33.01 -104.72,-62.99 -160.03,-89.68l325.95 -676.82c-217.29,-104.83 -453.98,-175.81 -703.22,-206.09l-91.53 745.53 -61.03 497.11c80.79,9.91 160.38,29.62 236.88,58.9 25.59,9.79 50.84,20.67 75.66,32.6 36.58,17.59 72.25,37.47 106.77,59.65 67.51,43.37 130.64,95.49 187.64,156.15l-182.24 171.66c-42.75,-45.5 -90.1,-84.58 -140.74,-117.11 -25.89,-16.64 -52.64,-31.56 -80.08,-44.75 -18.62,-8.95 -37.55,-17.11 -56.75,-24.45 -57.36,-21.97 -117.07,-36.74 -177.66,-44.18 -30.34,-3.73 -60.92,-5.61 -91.53,-5.63l0.01 -250.3zm976.25 1224.2l488.17 111.42 732.21 167.12 244.07 55.71c-22.98,100.69 -51.74,198.59 -85.84,293.38 -94.43,262.5 -229.84,501.34 -397.12,710.8 -63.88,79.98 -132.4,155.67 -205.05,226.76l-175.27 -178.8 -525.82 -536.39c43.59,-42.65 84.71,-88.08 123.03,-136.07l587.33 468.38c150.55,-188.51 272.41,-403.47 357.4,-639.72l-706.46 -255.14 -471.07 -170.12c-27.64,76.56 -64.56,149.78 -110.13,217.82 -15.26,22.78 -31.46,44.98 -48.63,66.52 -25.28,31.74 -52.61,62.09 -81.92,90.81 -57.31,56.17 -122.16,106.12 -193.99,148.19l-126.8 -215.87c53.87,-31.56 102.51,-69.02 145.5,-111.15 21.98,-21.54 42.47,-44.3 61.43,-68.11 12.86,-16.16 25.04,-32.8 36.46,-49.89 34.18,-51.03 61.87,-105.96 82.61,-163.38 10.38,-28.75 19.02,-58.14 25.85,-87.98l244.02 55.7zm-541.79 679.37l217.25 451.13 325.87 676.66 108.63 225.56c-93.06,44.82 -187.52,83.37 -282.9,115.81 -264.11,89.84 -535.27,132.9 -803.34,132.71 -102.36,-0.08 -204.25,-6.46 -305.13,-18.94l30.52 -248.52 91.53 -745.54c60.53,7.48 121.67,11.31 183.08,11.35l0 751.22c241.26,0.17 485.31,-38.57 723,-119.43l-241 -711.4 -160.71 -474.36c-77.09,26.12 -157.35,42.9 -238.97,49.71 -27.31,2.28 -54.77,3.44 -82.32,3.46 -40.58,0.02 -81.35,-2.42 -122.07,-7.43 -79.65,-9.78 -159.14,-29.35 -236.81,-59.27l89.72 -233.73c58.25,22.45 117.87,37.11 177.6,44.46 30.55,3.75 61.13,5.59 91.56,5.56 20.66,-0.01 41.25,-0.88 61.74,-2.59 61.21,-5.1 121.41,-17.69 179.23,-37.28 28.96,-9.81 57.32,-21.38 84.91,-34.64l108.6 225.51zm-868.95 0l-217.25 451.13 -325.86 676.67 -108.63 225.56c-93.05,-44.82 -182.09,-94.63 -266.92,-148.97 -234.91,-150.47 -437.63,-335.63 -604.62,-545.34 -63.76,-80.07 -122.3,-163.71 -175.45,-250.37l213.32 -131.08 639.96 -393.27c31.88,51.99 67.01,102.18 105.28,150.22l-587.33 468.38c150.29,188.73 332.73,355.37 544.16,490.8l405.93 -631.98 270.68 -421.41c-68.48,-43.98 -131.66,-96.27 -187.86,-155.84 -18.82,-19.93 -36.84,-40.67 -54.03,-62.19 -25.32,-31.72 -48.83,-65.12 -70.3,-100.07 -42.01,-68.37 -76.28,-142.72 -101.31,-222.11l238.68 -75.58c18.78,59.53 44.48,115.29 75.98,166.57 16.12,26.23 33.74,51.28 52.74,75.06 12.89,16.15 26.41,31.71 40.52,46.66 42.14,44.68 89.53,83.89 140.9,116.88 25.73,16.53 52.46,31.48 80.03,44.79l-108.6 225.51z"/>
   <path class="fil3" d="M6452.93 2503.78l0 312.95 -271 156.46 -271.01 156.46 -271.01 -156.46 -271.01 -156.46 0 -312.95 0 -312.94 271.01 -156.47 271.01 -156.46 271.01 156.46 271 156.47 0 312.94zm-203.25 0l0 -146.69 -296.42 171.14 0 342.28 127.03 -73.36 169.39 -97.78 0 -195.59zm-338.77 -48.9l296.41 -171.14 -127.03 -73.35 -169.38 -97.79 -169.39 97.79 -127.03 73.35 296.42 171.14zm-42.35 415.62l0 -342.27 -296.42 -171.14 0 146.68 0 195.59 169.39 97.78 127.03 73.36z"/>
  </g>
  <path class="fil4" d="M1283.75 9714.37c35.78,0 67.12,11.93 93.75,35.5 26.9,23.86 40.21,56.03 40.21,96.8l0 132.3 121.48 0c42.16,0 74.9,13.04 98.19,39.39 23.3,26.07 34.94,57.69 34.94,94.57 0,35.78 -11.64,67.12 -34.94,93.75 -23.3,26.9 -56.03,40.21 -98.19,40.21l-121.48 0 0 131.48c0,42.15 -13.31,74.89 -40.21,98.18 -26.63,23.3 -57.97,34.94 -93.75,34.94 -35.77,0 -66.84,-11.64 -92.91,-34.94 -26.35,-23.3 -39.38,-56.03 -39.38,-98.18l0 -131.48 -146.45 0c-42.15,0 -74.89,-13.31 -98.18,-40.21 -23.3,-26.63 -34.95,-57.97 -34.95,-93.75 0,-36.88 11.65,-68.5 34.95,-94.57 23.3,-26.35 56.03,-39.39 98.18,-39.39l146.45 0 0 -132.3c0,-40.77 13.03,-72.94 39.38,-96.8 26.07,-23.57 57.14,-35.5 92.91,-35.5zm2415.53 819.05c0,89.58 -43.82,134.52 -131.47,134.52l-1045.1 0c-42.15,0 -74.89,-13.03 -98.18,-39.1 -23.3,-26.08 -34.94,-57.97 -34.94,-95.69 0,-36.61 11.64,-67.95 34.94,-94.02 23.3,-26.08 56.03,-39.11 98.18,-39.11l910.3 0 0 -178.06 -930.27 0c-88.75,0 -133.14,-44.38 -133.14,-132.86l0 -404.95c0,-89.59 44.39,-134.52 133.14,-134.52l1065.06 0c87.65,0 131.47,44.93 131.47,134.52l0 849.28zm-266.26 -539.46l0 -176.4 -797.13 0 0 176.4 797.13 0zm875.35 552.5c0,41.04 -13.04,73.23 -39.39,96.52 -26.07,23.3 -57.69,34.94 -94.57,34.94 -35.78,0 -66.84,-11.64 -92.92,-34.94 -26.35,-23.3 -39.38,-55.48 -39.38,-96.52l0 -539.19c-36.61,33.29 -73.78,49.93 -111.5,49.93 -34.39,0 -63.24,-13.03 -86.54,-39.1 -23.3,-26.07 -34.94,-56.86 -34.94,-92.36 0,-39.94 16.09,-76 48.26,-108.17l221.62 -221.34c37.99,-37.72 77.11,-56.58 117.04,-56.58 33.56,0 60.74,13.03 81.27,39.1 20.81,26.07 31.07,62.96 31.07,110.67l0 857.04zm1905.45 -996.83c46.61,0 83.21,10.53 109.84,31.62 26.63,21.08 39.94,47.71 39.94,79.6 0,38.83 -19.42,77.67 -58.25,116.49l-850.38 849c-27.74,27.74 -58.8,41.6 -93.19,41.6 -17.76,0 -34.67,-3.88 -50.76,-11.65 -16.09,-7.76 -30.51,-17.75 -43.27,-29.95 -12.75,-12.2 -22.74,-26.63 -29.95,-43.26 -7.21,-16.65 -10.81,-33.84 -10.81,-51.59 0,-15.54 2.77,-30.51 8.31,-44.94 5.55,-14.42 16.09,-29.4 31.62,-44.94l625.72 -624.05 -743.87 0c-42.16,0 -74.89,-13.31 -98.18,-39.66 -23.31,-26.63 -34.95,-57.97 -34.95,-94.3 0,-36.34 11.64,-67.68 34.95,-94.3 23.3,-26.35 56.02,-39.66 98.18,-39.66l1065.05 0zm1597.6 983.52c0,89.86 -44.39,134.8 -133.14,134.8l-1075.05 0c-41.04,0 -73.23,-13.03 -96.52,-39.1 -23.3,-26.08 -34.94,-57.97 -34.94,-95.69 0,-36.61 11.64,-67.95 34.94,-94.02 23.3,-26.08 55.48,-39.11 96.52,-39.11l941.91 0 0 -158.09 -1053.41 0 0 -692.29 1181.55 0c42.15,0 75.17,13.31 99.01,39.66 23.86,26.62 35.78,57.96 35.78,94.3 0,36.33 -11.92,67.67 -35.78,94.3 -23.85,26.35 -56.86,39.66 -99.01,39.66l-915.29 0 0 156.42 920.29 0c88.75,0 133.14,44.94 133.14,134.8l0 424.37zm2090.18 0c0,89.86 -43.82,134.8 -131.47,134.8l-1065.06 0c-87.64,0 -131.47,-44.94 -131.47,-134.52l0 -849.28c0,-89.59 43.83,-134.52 131.47,-134.52l1058.41 0c42.15,0 75.16,13.31 99.01,39.66 23.85,26.62 35.78,57.96 35.78,94.3 0,36.33 -11.93,67.67 -35.78,94.3 -23.86,26.35 -56.58,39.66 -98.74,39.66l-923.89 0 0 176.4 930.55 0c87.37,0 131.18,44.93 131.18,134.8l0 404.39zm-264.6 -133.14l0 -178.06 -797.13 0 0 178.06 797.13 0zm1787.31 133.42c0,89.58 -44.39,134.52 -133.14,134.52l-1065.06 0c-87.64,0 -131.47,-44.94 -131.47,-134.52l0 -849.28c0,-89.59 43.83,-134.52 131.47,-134.52l1065.06 0c88.75,0 133.14,44.93 133.14,134.52l0 849.28zm-266.27 -133.42l0 -582.45 -797.13 0 0 582.45 797.13 0zm2356.45 133.14c0,89.86 -44.38,134.8 -133.13,134.8l-1065.06 0c-87.65,0 -131.48,-44.94 -131.48,-134.8l0 -291.23c0,-68.78 43.83,-114.83 131.48,-138.13 -80.99,-29.95 -121.48,-72.94 -121.48,-129.52l0 -290.4c0,-89.58 43.82,-134.24 131.47,-134.24l1045.09 0c88.76,0 133.14,44.66 133.14,134.24l0 290.4c0,56.58 -41.04,99.57 -123.14,129.52 88.75,25.52 133.13,71.56 133.13,138.13l0 291.23zm-266.26 -539.18l0 -176.4 -797.13 0 0 176.4 797.13 0zm0 406.05l0 -178.06 -797.13 0 0 178.06 797.13 0zm1788.97 133.14c0,89.86 -44.39,134.8 -133.14,134.8l-1075.05 0c-41.04,0 -73.23,-13.03 -96.52,-39.1 -23.3,-26.08 -34.94,-57.97 -34.94,-95.69 0,-36.61 11.64,-67.95 34.94,-94.02 23.3,-26.08 55.48,-39.11 96.52,-39.11l941.91 0 0 -158.09 -1053.41 0 0 -692.29 1181.55 0c42.15,0 75.17,13.31 99.01,39.66 23.86,26.62 35.78,57.96 35.78,94.3 0,36.33 -11.92,67.67 -35.78,94.3 -23.85,26.35 -56.86,39.66 -99.01,39.66l-915.29 0 0 156.42 920.29 0c88.75,0 133.14,44.94 133.14,134.8l0 424.37zm2090.18 0.28c0,89.58 -43.82,134.52 -131.47,134.52l-1045.1 0c-42.15,0 -74.89,-13.03 -98.18,-39.1 -23.3,-26.08 -34.94,-57.97 -34.94,-95.69 0,-36.61 11.64,-67.95 34.94,-94.02 23.3,-26.08 56.03,-39.11 98.18,-39.11l910.3 0 0 -178.06 -930.27 0c-88.75,0 -133.14,-44.38 -133.14,-132.86l0 -404.95c0,-89.59 44.39,-134.52 133.14,-134.52l1065.06 0c87.65,0 131.47,44.93 131.47,134.52l0 849.28zm-266.26 -539.46l0 -176.4 -797.13 0 0 176.4 797.13 0zm1788.97 539.18c0,89.86 -44.39,134.8 -133.14,134.8l-1075.05 0c-41.04,0 -73.23,-13.03 -96.52,-39.1 -23.3,-26.08 -34.94,-57.97 -34.94,-95.69 0,-36.61 11.64,-67.95 34.94,-94.02 23.3,-26.08 55.48,-39.11 96.52,-39.11l941.91 0 0 -158.09 -1053.41 0 0 -692.29 1181.55 0c42.15,0 75.17,13.31 99.01,39.66 23.86,26.62 35.78,57.96 35.78,94.3 0,36.33 -11.92,67.67 -35.78,94.3 -23.85,26.35 -56.86,39.66 -99.01,39.66l-915.29 0 0 156.42 920.29 0c88.75,0 133.14,44.94 133.14,134.8l0 424.37zm2090.18 0c0,89.86 -43.82,134.8 -131.47,134.8l-1065.06 0c-87.64,0 -131.47,-44.94 -131.47,-134.52l0 -849.28c0,-89.59 43.83,-134.52 131.47,-134.52l1058.41 0c42.15,0 75.16,13.31 99.01,39.66 23.85,26.62 35.78,57.96 35.78,94.3 0,36.33 -11.93,67.67 -35.78,94.3 -23.86,26.35 -56.58,39.66 -98.74,39.66l-923.89 0 0 176.4 930.55 0c87.37,0 131.18,44.93 131.18,134.8l0 404.39zm-264.6 -133.14l0 -178.06 -797.13 0 0 178.06 797.13 0zm1785.64 -290.95c0,88.48 -44.38,132.86 -133.13,132.86l-930.27 0 0 158.09 930.27 0c41.04,0 73.5,13.03 97.35,39.11 23.85,26.07 35.77,57.41 35.77,94.02 0,37.72 -11.92,69.61 -35.77,95.69 -23.86,26.07 -56.31,39.1 -97.35,39.1l-1196.54 0 0 -559.16c0,-89.86 43.83,-134.8 131.48,-134.8l931.93 0 0 -156.42 -931.93 0c-42.16,0 -74.62,-13.31 -97.35,-39.66 -22.75,-26.63 -34.12,-57.97 -34.12,-94.3 0,-36.34 11.37,-67.68 34.12,-94.3 22.74,-26.35 55.19,-39.66 97.35,-39.66l1065.06 0c88.75,0 133.13,44.93 133.13,134.52l0 424.92z"/>
 </g>
</svg>
